<svg width="150" height="30" viewBox="0 0 150 30" fill="none" xmlns="http://www.w3.org/2000/svg">
<g clip-path="url(#clip0)">
<path d="M150 23.3677C148.945 23.3677 147.837 23.3677 146.73 23.3677C146.73 23.108 146.73 22.9003 146.73 22.6926C146.73 20.4078 146.73 18.071 146.73 15.7862C146.73 15.5784 146.73 15.4226 146.73 15.2149C146.677 13.1378 145.781 12.2031 143.882 12.2031C141.825 12.2031 140.295 13.5532 140.242 15.4226C140.19 17.8114 140.242 20.252 140.242 22.6406V23.3677C139.135 23.3677 138.08 23.3677 136.973 23.3677C136.973 19.0576 136.973 14.6957 136.973 10.3337H139.979V12.255C141.508 10.3856 143.355 9.7106 145.517 9.9183C147.785 10.126 149.42 11.1126 150 13.4494V23.3677Z" fill="#2A2828"/>
<path d="M83.8081 23.3676C82.648 23.3676 81.5931 23.3676 80.5383 23.3676C80.5383 19.0056 80.5383 14.6957 80.5383 10.2817H83.6498V11.8915C83.7028 11.9435 83.7551 11.9435 83.7551 11.9953C84.8629 10.5413 86.3925 9.86633 88.1856 9.86633C89.9787 9.86633 91.5083 10.2817 92.5108 11.9953C93.4074 10.9568 94.4622 10.2298 95.8335 10.0221C97.0466 9.81437 98.2597 9.86633 99.4727 10.1779C101.002 10.5933 102.004 11.6319 102.057 13.1897C102.162 16.565 102.109 19.9404 102.109 23.3676C101.108 23.3676 100.053 23.3676 98.8927 23.3676C98.8927 23.108 98.8927 22.8483 98.8927 22.5887C98.8927 19.9404 98.8927 17.292 98.8397 14.6957C98.7867 13.0858 98.1544 12.4108 96.7301 12.255C94.9892 12.0473 93.6709 12.7743 93.2491 14.1763C93.0909 14.7475 93.0379 15.3188 93.0379 15.89V23.4196C91.9308 23.4196 90.8753 23.4196 89.7152 23.4196C89.7152 23.2118 89.7152 23.0041 89.7152 22.7445C89.7152 20.1481 89.7152 17.6036 89.7152 15.0072C89.7152 14.0206 89.6099 13.0339 88.6074 12.5146C87.5525 11.9953 86.4454 12.0473 85.3906 12.6704C84.2828 13.3455 83.861 14.384 83.861 15.6303V22.6926C83.8081 22.8483 83.8081 23.056 83.8081 23.3676Z" fill="#2A2828"/>
<path d="M62.0781 11.2683C61.0233 11.2683 59.9157 11.2683 58.8608 11.2683C58.7553 11.2683 58.5443 11.1126 58.4916 11.0087C57.7005 8.7758 56.0127 7.78916 53.692 7.78916C51.3713 7.78916 49.5253 8.67194 48.365 10.7491C46.9409 13.3974 47.3102 17.2401 49.1034 19.4211C51.1076 21.8097 56.2764 22.2252 58.0169 18.746C58.3334 18.1229 58.4916 17.3958 58.7553 16.6689H62.0781C61.9726 18.4344 61.3397 19.9403 60.1793 21.2385C58.9136 22.6406 57.2785 23.4195 55.3797 23.6792C52.3734 24.1465 49.5781 23.6792 47.1519 21.7059C44.1983 19.3691 43.1435 15.111 44.4093 11.3203C45.6224 7.78916 48.787 5.45239 52.6372 5.24468C54.6941 5.14083 56.6983 5.40047 58.597 6.3871C60.7067 7.42564 62.0254 9.29506 62.0781 11.2683Z" fill="#2A2828"/>
<path d="M115.348 11.8396C115.348 9.55469 115.348 7.42568 115.348 5.24469H118.618V23.3676C117.616 23.3676 116.666 23.3676 115.559 23.3676C115.559 22.8483 115.559 22.3291 115.559 21.654C113.871 23.7311 111.709 23.9908 109.388 23.6792C106.223 23.2118 104.114 20.9789 103.903 17.7594C103.85 16.7208 103.85 15.6823 104.061 14.6956C104.747 11.5799 107.436 9.71051 110.654 9.91821C112.5 9.97017 114.03 10.4375 115.348 11.8396ZM115.506 16.7728C115.453 16.2534 115.401 15.7861 115.295 15.3706C114.926 13.4493 113.502 12.255 111.603 12.203C109.494 12.0992 107.964 13.1378 107.436 15.0591C107.226 15.89 107.12 16.7208 107.173 17.5516C107.278 19.7846 108.808 21.2386 110.917 21.4463C112.975 21.602 114.663 20.4077 115.19 18.3306C115.401 17.8113 115.453 17.2401 115.506 16.7728Z" fill="#2A2828"/>
<path d="M73.6286 22.2252C71.2024 23.7311 68.6709 24.1985 66.0338 23.3157C63.9241 22.6406 63.0274 20.979 63.4494 18.9019C63.7131 17.7075 64.4515 16.8247 65.6118 16.5131C67.0886 16.0977 68.6709 15.89 70.2006 15.6303C70.9389 15.4746 71.6772 15.4226 72.4155 15.2669C73.0485 15.1111 73.5233 14.7476 73.5763 14.0206C73.6286 13.3975 73.3121 12.8263 72.6267 12.5147C71.2024 11.9435 69.7788 11.9435 68.4072 12.5666C67.7215 12.8782 67.5106 13.2417 67.1941 14.2283C66.1392 14.2283 65.0844 14.2283 63.9768 14.2283C64.0823 12.6704 64.768 11.4761 66.1392 10.853C68.9875 9.50283 71.9407 9.45094 74.7894 10.7491C76.1077 11.3204 76.7407 12.4108 76.7407 13.9167V19.9404C76.7407 21.4463 76.7407 21.4983 78.3226 21.4463V23.16C78.3226 23.2638 78.1643 23.4715 78.0591 23.4715C77.1625 23.5754 76.3182 23.7311 75.4217 23.6792C74.4728 23.6273 73.8398 23.108 73.6286 22.2252ZM73.3121 17.0325C72.152 17.1882 71.0442 17.344 69.9371 17.5517C69.0928 17.7075 68.3017 17.8633 67.5106 18.2268C66.8249 18.4864 66.6139 19.1615 66.6139 19.8885C66.6666 20.5635 67.0886 20.927 67.6688 21.1347C69.251 21.706 70.7806 21.6021 72.2049 20.7712C72.785 20.4597 73.2068 19.9404 73.2068 19.2653C73.365 18.4864 73.3121 17.7075 73.3121 17.0325Z" fill="#2A2828"/>
<path d="M134.915 17.5516C133.07 17.5516 131.276 17.5516 129.43 17.5516C127.637 17.5516 125.791 17.5516 123.998 17.5516C123.84 19.1095 124.894 20.7193 126.424 21.1866C128.587 21.8617 130.486 21.1866 131.593 19.2653H134.705C134.494 20.3038 133.967 21.1347 133.228 21.8617C130.486 24.4581 125.053 24.4062 122.468 21.654C120.412 19.473 120.2 16.8247 121.203 14.1763C122.152 11.5799 124.209 10.1779 127.004 9.91824C130.063 9.60668 132.595 10.5933 134.177 13.2935C134.863 14.5917 135.074 15.9938 134.915 17.5516ZM131.54 15.6303C131.435 13.5013 129.694 12.0472 127.532 12.2031C125.527 12.3589 123.893 13.9167 124.051 15.6303H131.54Z" fill="#2A2828"/>
<path fill-rule="evenodd" clip-rule="evenodd" d="M33.7026 24.0947H25.422V23.2119H27.8482C27.8482 23.2119 29.1667 23.0041 28.5338 21.8098C28.4811 21.7579 28.2701 21.7059 28.2701 21.7059H24.8418L19.9368 23.9908V29.1317H29.5359C29.5359 29.1317 33.3334 28.3008 33.7026 24.0947Z" fill="#2A2828"/>
<path fill-rule="evenodd" clip-rule="evenodd" d="M4.58862 24.0947H12.8692V23.2119H10.4431C10.4431 23.2119 9.12451 23.0041 9.7574 21.8098C9.81017 21.7579 10.0211 21.7059 10.0211 21.7059H13.4494L18.3545 23.9908V29.1317H8.75529C8.75529 29.1317 4.95782 28.3008 4.58862 24.0947Z" fill="#2A2828"/>
<path fill-rule="evenodd" clip-rule="evenodd" d="M13.7658 20.6674H5.43249V21.5502H7.85862C7.85862 21.5502 9.17725 21.7579 8.54429 22.9522C8.49158 23.0042 8.28062 23.0561 8.28062 23.0561H4.90506L0 20.7712V15.6304H9.59917C9.59917 15.6304 13.3439 16.4612 13.7658 20.6674Z" fill="#2A2828"/>
<path fill-rule="evenodd" clip-rule="evenodd" d="M33.7026 5.03703H25.422V5.9198H27.8482C27.8482 5.9198 29.1667 6.12752 28.5338 7.32185C28.4811 7.37381 28.2701 7.42571 28.2701 7.42571H24.8418L19.9368 5.14089V0H29.5359C29.5359 0 33.3334 0.830849 33.7026 5.03703Z" fill="#2A2828"/>
<path fill-rule="evenodd" clip-rule="evenodd" d="M4.58862 5.03703H12.8692V5.9198H10.4431C10.4431 5.9198 9.12451 6.12752 9.7574 7.32185C9.81017 7.37381 10.0211 7.42571 10.0211 7.42571H13.4494L18.3545 5.14089V0H8.75529C8.75529 0 4.95782 0.830849 4.58862 5.03703Z" fill="#2A2828"/>
<path fill-rule="evenodd" clip-rule="evenodd" d="M13.7658 8.46421H5.43249V7.58143H7.85862C7.85862 7.58143 9.17725 7.37372 8.54429 6.17936C8.49158 6.12743 8.28062 6.0755 8.28062 6.0755H4.90506L0 8.36035V13.5012H9.59917C9.59917 13.5012 13.3439 12.6703 13.7658 8.46421Z" fill="#2A2828"/>
<path fill-rule="evenodd" clip-rule="evenodd" d="M24.7363 8.46421H33.0169V7.58143H30.5907C30.5907 7.58143 29.2722 7.37372 29.9051 6.17936C29.9578 6.12743 30.1688 6.0755 30.1688 6.0755H33.5971L38.5021 8.36035V13.5012H28.9557C28.9557 13.5012 25.1583 12.6703 24.7363 8.46421Z" fill="#2A2828"/>
<path fill-rule="evenodd" clip-rule="evenodd" d="M24.7363 20.6674H33.0169V21.5502H30.5907C30.5907 21.5502 29.2722 21.7579 29.9051 22.9522C29.9578 23.0042 30.1688 23.0561 30.1688 23.0561H33.5971L38.5021 20.7712V15.6304H28.9557C28.9557 15.6304 25.1583 16.4612 24.7363 20.6674Z" fill="#2A2828"/>
</g>
<defs>
<clipPath id="clip0">
<rect width="150" height="29.8077" fill="white"/>
</clipPath>
</defs>
</svg>
