<svg width="105" height="30" viewBox="0 0 105 30" fill="none" xmlns="http://www.w3.org/2000/svg">
<g clip-path="url(#clip0)">
<path d="M18.8159 6.21154V1.04013C18.8159 0.632249 19.1346 0.311768 19.5403 0.311768H23.1939C23.5532 0.311768 23.843 0.606028 23.843 0.964385C23.843 1.32274 23.5503 1.60826 23.1939 1.60826H20.2559V2.95428H22.7709C23.1273 2.95428 23.4199 3.24855 23.4199 3.6069C23.4199 3.96817 23.1273 4.25078 22.7709 4.25078H20.2559V5.64342H23.2403C23.5967 5.64342 23.8893 5.93768 23.8893 6.29603C23.8893 6.65439 23.5967 6.93991 23.2403 6.93991H19.5403C19.1346 6.93991 18.8159 6.61943 18.8159 6.21154Z" fill="#838383"/>
<path d="M25.1235 1.00223C25.1235 0.594346 25.4422 0.273865 25.8479 0.273865H26.0072C26.3172 0.273865 26.5346 0.434106 26.6678 0.652616L28.4179 3.52238L30.1795 0.643875C30.3302 0.399144 30.5359 0.273865 30.8285 0.273865H30.9879C31.3935 0.273865 31.7123 0.59726 31.7123 1.00223V6.26687C31.7123 6.67476 31.3906 6.99524 30.9879 6.99524C30.591 6.99524 30.2722 6.6631 30.2722 6.26687V2.963L29.0003 4.9325C28.8496 5.15975 28.6613 5.30251 28.3976 5.30251C28.1339 5.30251 27.9456 5.15975 27.7949 4.9325L26.5432 2.99213V6.28727C26.5432 6.68641 26.2245 6.99815 25.8276 6.99815C25.4306 6.99815 25.1206 6.68641 25.1206 6.28727V1.00223H25.1235Z" fill="#838383"/>
<path d="M33.2974 1.04014C33.2974 0.632249 33.619 0.311768 34.0217 0.311768H35.9891C37.5624 0.311768 38.5127 1.2499 38.5127 2.60467V2.62215C38.5127 4.15755 37.3248 4.95293 35.8471 4.95293H34.7461V6.26981C34.7461 6.6777 34.4245 6.99818 34.0217 6.99818C33.6161 6.99818 33.2974 6.67479 33.2974 6.26981V1.04014V1.04014ZM35.8964 3.65352C36.6207 3.65352 37.0437 3.2165 37.0437 2.64837V2.63089C37.0437 1.97827 36.5917 1.62574 35.8674 1.62574H34.7461V3.65352H35.8964Z" fill="#838383"/>
<path d="M39.5876 0.984776C39.5876 0.57689 39.9063 0.256409 40.312 0.256409C40.7176 0.256409 41.0363 0.57689 41.0363 0.984776V5.61428H43.7194C44.0873 5.61428 44.38 5.90854 44.38 6.27855C44.38 6.64856 44.0873 6.93991 43.7194 6.93991H40.3091C39.9034 6.93991 39.5847 6.61943 39.5847 6.21154V0.984776H39.5876Z" fill="#838383"/>
<path d="M44.7478 3.64476V3.62727C44.7478 1.74226 46.2255 0.19812 48.2595 0.19812C50.2935 0.19812 51.7538 1.72186 51.7538 3.60688V3.62727C51.7538 5.51229 50.2761 7.05643 48.2421 7.05643C46.2081 7.05351 44.7478 5.52977 44.7478 3.64476ZM50.2384 3.64476V3.62727C50.2384 2.49102 49.4098 1.54414 48.2421 1.54414C47.0744 1.54414 46.2632 2.47354 46.2632 3.60688V3.62727C46.2632 4.76353 47.0918 5.71041 48.2595 5.71041C49.4301 5.71041 50.2384 4.78101 50.2384 3.64476Z" fill="#838383"/>
<path d="M54.437 4.38185L52.3103 1.4742C52.2059 1.33144 52.1306 1.16246 52.1306 0.952692C52.1306 0.5652 52.4522 0.250545 52.855 0.250545C53.1853 0.250545 53.391 0.431181 53.5706 0.696306L55.1729 3.01543L56.8013 0.675912C56.9809 0.410786 57.1982 0.238892 57.4967 0.238892C57.94 0.238892 58.2036 0.550633 58.2036 0.949778C58.2036 1.14789 58.108 1.32853 58.0153 1.45964L55.8857 4.34688V6.26103C55.8857 6.66892 55.5641 6.9894 55.1613 6.9894C54.7557 6.9894 54.437 6.66601 54.437 6.26103V4.38185Z" fill="#838383"/>
<path d="M59.1946 1.00223C59.1946 0.594346 59.5162 0.273865 59.9189 0.273865H60.0783C60.3883 0.273865 60.6056 0.434106 60.7389 0.652616L62.4889 3.52238L64.2506 0.643875C64.4012 0.399144 64.6069 0.273865 64.8996 0.273865H65.0589C65.4646 0.273865 65.7833 0.59726 65.7833 1.00223V6.26687C65.7833 6.67476 65.4646 6.99524 65.0589 6.99524C64.662 6.99524 64.3433 6.6631 64.3433 6.26687V2.963L63.0713 4.9325C62.9206 5.15975 62.7323 5.30251 62.4686 5.30251C62.205 5.30251 62.0166 5.15975 61.866 4.9325L60.6143 2.99213V6.28727C60.6143 6.68641 60.2927 6.99815 59.8986 6.99815C59.5046 6.99815 59.1917 6.68641 59.1917 6.28727V1.00223H59.1946Z" fill="#838383"/>
<path d="M67.3682 6.21154V1.04013C67.3682 0.632249 67.6869 0.311768 68.0925 0.311768H71.7462C72.1055 0.311768 72.3952 0.606028 72.3952 0.964385C72.3952 1.32274 72.1026 1.60826 71.7462 1.60826H68.8082V2.95428H71.3232C71.6795 2.95428 71.9722 3.24855 71.9722 3.6069C71.9722 3.96817 71.6795 4.25078 71.3232 4.25078H68.8082V5.64342H71.7925C72.1489 5.64342 72.4416 5.93768 72.4416 6.29603C72.4416 6.65439 72.1489 6.93991 71.7925 6.93991H68.0925C67.6869 6.93991 67.3682 6.61943 67.3682 6.21154Z" fill="#838383"/>
<path d="M73.6758 1.00224C73.6758 0.594355 73.9945 0.273873 74.4001 0.273873H74.5508C74.8985 0.273873 75.1071 0.442855 75.3041 0.69924L78.1001 4.39352V0.973106C78.1001 0.573961 78.4189 0.253479 78.8158 0.253479C79.2128 0.253479 79.5315 0.573961 79.5315 0.973106V6.24649C79.5315 6.65437 79.2099 6.97485 78.8071 6.97485H78.7608C78.4131 6.97485 78.2045 6.80587 78.0074 6.54949L75.1071 2.72701V6.27853C75.1071 6.67477 74.7855 6.99816 74.3914 6.99816C73.9974 6.99816 73.6758 6.67477 73.6758 6.27853V1.00224Z" fill="#838383"/>
<path d="M82.6492 1.65486H81.2555C80.8875 1.65486 80.5862 1.35186 80.5862 0.981849C80.5862 0.611839 80.8875 0.308838 81.2555 0.308838H85.4915C85.8595 0.308838 86.1608 0.611839 86.1608 0.981849C86.1608 1.35186 85.8595 1.65486 85.4915 1.65486H84.0979V6.26688C84.0979 6.67477 83.7763 6.99525 83.3735 6.99525C82.9679 6.99525 82.6492 6.67186 82.6492 6.26688V1.65486Z" fill="#838383"/>
<path d="M18.5204 16.3329L21.2063 10.2321C21.3917 9.81254 21.7336 9.55615 22.1972 9.55615H22.2957C22.7593 9.55615 23.0867 9.80962 23.275 10.2321L25.961 16.3329C26.016 16.4553 26.0479 16.566 26.0479 16.6767C26.0479 17.1312 25.6973 17.4954 25.2453 17.4954C24.8483 17.4954 24.5847 17.2623 24.4311 16.9098L23.9125 15.6919H20.5225L19.9836 16.9651C19.8416 17.2972 19.5547 17.4954 19.2013 17.4954C18.7608 17.4954 18.4189 17.1399 18.4189 16.6971C18.4189 16.5747 18.4653 16.4553 18.5204 16.3329ZM23.2866 14.1857L22.2175 11.6276L21.1512 14.1857H23.2866Z" fill="black"/>
<path d="M27.3835 10.4885C27.3835 10.0136 27.7573 9.63488 28.2325 9.63488H28.4092C28.8178 9.63488 29.0583 9.833 29.2901 10.1331L32.5613 14.4508V10.4536C32.5613 9.98741 32.935 9.61157 33.3986 9.61157C33.8622 9.61157 34.236 9.98741 34.236 10.4536V16.6185C34.236 17.0934 33.8622 17.4721 33.387 17.4721H33.332C32.9263 17.4721 32.6829 17.274 32.4512 16.9739L29.0612 12.5017V16.6534C29.0612 17.1196 28.6874 17.4954 28.2238 17.4954C27.7602 17.4954 27.3864 17.1196 27.3864 16.6534V10.4885H27.3835Z" fill="black"/>
<path d="M36.0818 10.5322C36.0818 10.0573 36.4556 9.67853 36.9307 9.67853H39.0893C41.5116 9.67853 43.1834 11.3509 43.1834 13.5301V13.5534C43.1834 15.7356 41.5087 17.4284 39.0893 17.4284H36.9307C36.4585 17.4284 36.0818 17.0525 36.0818 16.5747V10.5322V10.5322ZM39.0864 15.89C40.4743 15.89 41.4102 14.949 41.4102 13.5768V13.5534C41.4102 12.1812 40.4743 11.2168 39.0864 11.2168H37.7768V15.8871H39.0864V15.89Z" fill="black"/>
<path d="M47.8395 16.6097C47.654 16.4757 47.5208 16.2339 47.5208 15.9687C47.5208 15.5259 47.8742 15.1821 48.3146 15.1821C48.5349 15.1821 48.6884 15.2608 48.7985 15.3365C49.3809 15.7677 50.0212 16.0328 50.7688 16.0328C51.4613 16.0328 51.8814 15.7561 51.8814 15.3016V15.2783C51.8814 14.8471 51.6177 14.6256 50.3284 14.2935C48.7753 13.8944 47.7757 13.4632 47.7757 11.9249V11.9015C47.7757 10.4943 48.8999 9.56494 50.4732 9.56494C51.4091 9.56494 52.2233 9.80967 52.9158 10.2525C53.1041 10.3632 53.2895 10.5963 53.2895 10.9284C53.2895 11.3713 52.9361 11.7151 52.4956 11.7151C52.3305 11.7151 52.1972 11.6714 52.0668 11.5927C51.5047 11.2606 50.9774 11.0712 50.4501 11.0712C49.801 11.0712 49.4591 11.3713 49.4591 11.7471V11.7704C49.4591 12.2803 49.7894 12.4464 51.1223 12.7902C52.6869 13.201 53.5677 13.7633 53.5677 15.1151V15.1384C53.5677 16.6767 52.4 17.5391 50.7398 17.5391C49.7228 17.5391 48.6971 17.2303 47.8395 16.6097Z" fill="#838383"/>
<path d="M55.0396 10.4652C55.0396 9.99032 55.4133 9.61157 55.8885 9.61157C56.3608 9.61157 56.7374 9.98741 56.7374 10.4652V13.0669L59.8638 9.94662C60.0724 9.73685 60.281 9.61449 60.5794 9.61449C61.0517 9.61449 61.3617 9.97867 61.3617 10.4011C61.3617 10.6662 61.24 10.8673 61.0546 11.0421L58.8873 13.0786L61.2545 16.0678C61.3878 16.2339 61.4863 16.4116 61.4863 16.6651C61.4863 17.14 61.1241 17.4954 60.6287 17.4954C60.2984 17.4954 60.1014 17.3294 59.913 17.0846L57.711 14.1857L56.7432 15.0947V16.6447C56.7432 17.1196 56.3695 17.4983 55.8943 17.4983C55.422 17.4983 55.0453 17.1225 55.0453 16.6447V10.4652H55.0396Z" fill="#838383"/>
<path d="M62.9553 10.4652C62.9553 9.99032 63.3291 9.61157 63.8043 9.61157C64.2766 9.61157 64.6532 9.98741 64.6532 10.4652V16.6418C64.6532 17.1167 64.2795 17.4954 63.8043 17.4954C63.332 17.4954 62.9553 17.1196 62.9553 16.6418V10.4652Z" fill="#838383"/>
<path d="M66.5771 10.4652C66.5771 9.99032 66.9509 9.61157 67.4261 9.61157C67.8984 9.61157 68.275 9.98741 68.275 10.4652V15.8784H71.413C71.8418 15.8784 72.1837 16.2222 72.1837 16.6534C72.1837 17.0846 71.8418 17.4284 71.413 17.4284H67.429C66.9567 17.4284 66.58 17.0526 66.58 16.5748V10.4652H66.5771Z" fill="#838383"/>
<path d="M73.3918 10.4652C73.3918 9.99032 73.7656 9.61157 74.2408 9.61157C74.7131 9.61157 75.0897 9.98741 75.0897 10.4652V15.8784H78.2277C78.6565 15.8784 78.9984 16.2222 78.9984 16.6534C78.9984 17.0846 78.6565 17.4284 78.2277 17.4284H74.2437C73.7714 17.4284 73.3947 17.0526 73.3947 16.5748V10.4652H73.3918Z" fill="#838383"/>
<path d="M80.0531 16.6097C79.8648 16.4757 79.7344 16.2339 79.7344 15.9687C79.7344 15.5259 80.085 15.1821 80.5254 15.1821C80.7456 15.1821 80.8991 15.2608 81.0092 15.3365C81.5916 15.7677 82.232 16.0328 82.9795 16.0328C83.672 16.0328 84.0921 15.7561 84.0921 15.3016V15.2783C84.0921 14.8471 83.8285 14.6256 82.5391 14.2935C80.9861 13.8944 79.9865 13.4632 79.9865 11.9249V11.9015C79.9865 10.4943 81.1107 9.56494 82.684 9.56494C83.6198 9.56494 84.434 9.80967 85.1294 10.2525C85.3177 10.3632 85.5032 10.5963 85.5032 10.9284C85.5032 11.3713 85.1526 11.7151 84.7122 11.7151C84.547 11.7151 84.4137 11.6714 84.2834 11.5927C83.7213 11.2606 83.1939 11.0712 82.6637 11.0712C82.0147 11.0712 81.6728 11.3713 81.6728 11.7471V11.7704C81.6728 12.2803 82.0031 12.4464 83.3359 12.7902C84.8976 13.201 85.7813 13.7633 85.7813 15.1151V15.1384C85.7813 16.6767 84.6137 17.5391 82.9505 17.5391C81.9364 17.5391 80.9136 17.2303 80.0531 16.6097Z" fill="#838383"/>
<path d="M19.0708 21.2275C19.0708 20.6885 19.4938 20.2632 20.0298 20.2632H20.2297C20.6904 20.2632 20.9657 20.4875 21.2265 20.8284L24.9265 25.7143V21.1896C24.9265 20.6623 25.3495 20.2369 25.8739 20.2369C26.3955 20.2369 26.8214 20.6623 26.8214 21.1896V28.1674C26.8214 28.7064 26.3984 29.1318 25.8624 29.1318H25.7986C25.3379 29.1318 25.0627 28.9074 24.8019 28.5695L20.9628 23.5088V28.2053C20.9628 28.7326 20.5398 29.158 20.0153 29.158C19.4938 29.158 19.0679 28.7326 19.0679 28.2053V21.2275H19.0708Z" fill="black"/>
<path d="M28.9133 28.1179V21.277C28.9133 20.738 29.3364 20.3127 29.8724 20.3127H34.7053C35.1776 20.3127 35.5658 20.7002 35.5658 21.178C35.5658 21.6529 35.1805 22.0287 34.7053 22.0287H30.8169V23.8088H34.1432C34.6155 23.8088 35.0037 24.1963 35.0037 24.6741C35.0037 25.152 34.6184 25.5249 34.1432 25.5249H30.8169V27.3662H34.769C35.2413 27.3662 35.6296 27.7537 35.6296 28.2315C35.6296 28.7093 35.2442 29.0822 34.769 29.0822H29.8724C29.3364 29.0822 28.9133 28.6569 28.9133 28.1179Z" fill="black"/>
<path d="M39.2921 22.0928H37.4465C36.9597 22.0928 36.5627 21.6908 36.5627 21.2042C36.5627 20.7148 36.9626 20.3156 37.4465 20.3156H43.053C43.5398 20.3156 43.9367 20.7177 43.9367 21.2042C43.9367 21.6937 43.5369 22.0928 43.053 22.0928H41.2102V28.1936C41.2102 28.7326 40.7872 29.158 40.2512 29.158C39.7151 29.158 39.2921 28.7326 39.2921 28.1936V22.0928V22.0928Z" fill="black"/>
<path d="M44.7855 21.5393C44.7479 21.4257 44.7102 21.2888 44.7102 21.1751C44.7102 20.6361 45.1593 20.2341 45.6953 20.2341C46.1444 20.2341 46.5037 20.5225 46.6283 20.9246L48.361 26.2999L50.1052 20.977C50.2559 20.5254 50.592 20.2137 51.0759 20.2137H51.2265C51.7133 20.2137 52.0494 20.5138 52.1972 20.977L53.9414 26.2999L55.6741 20.9246C55.7987 20.5487 56.1232 20.2341 56.5955 20.2341C57.117 20.2341 57.5429 20.6361 57.5429 21.1606C57.5429 21.2742 57.5053 21.4228 57.4676 21.5364L55.0251 28.4268C54.8512 28.9162 54.489 29.2163 54.0283 29.2163H53.8284C53.3677 29.2163 53.02 28.9279 52.8433 28.4268L51.1251 23.4039L49.4069 28.4268C49.2331 28.9279 48.8825 29.2163 48.4218 29.2163H48.2219C47.7612 29.2163 47.399 28.9162 47.2252 28.4268L44.7855 21.5393Z" fill="black"/>
<path d="M58.3774 24.7237V24.6975C58.3774 22.2035 60.3332 20.1612 63.0249 20.1612C65.7166 20.1612 67.6463 22.1773 67.6463 24.6712V24.6975C67.6463 27.1914 65.6905 29.2337 62.9988 29.2337C60.31 29.2337 58.3774 27.2147 58.3774 24.7237ZM65.6413 24.7237V24.6975C65.6413 23.1941 64.5432 21.9413 62.9988 21.9413C61.4545 21.9413 60.3825 23.1679 60.3825 24.6712V24.6975C60.3825 26.2008 61.4777 27.4536 63.0249 27.4536C64.5721 27.4536 65.6413 26.227 65.6413 24.7237Z" fill="black"/>
<path d="M69.3557 21.277C69.3557 20.738 69.7787 20.3127 70.3148 20.3127H73.3426C74.4523 20.3127 75.3099 20.6273 75.8836 21.2013C76.3704 21.6908 76.6312 22.3783 76.6312 23.2058V23.232C76.6312 24.6101 75.9445 25.4608 74.8869 25.9007L76.2197 27.5293C76.4052 27.7683 76.5327 27.9664 76.5327 28.2694C76.5327 28.8084 76.0836 29.158 75.6229 29.158C75.1883 29.158 74.9014 28.9453 74.6754 28.6569L72.8066 26.2766H71.2738V28.1936C71.2738 28.7326 70.8508 29.158 70.3148 29.158C69.7787 29.158 69.3557 28.7326 69.3557 28.1936V21.277V21.277ZM73.218 24.5722C74.1539 24.5722 74.687 24.0711 74.687 23.331V23.3077C74.687 22.4803 74.1133 22.0549 73.1803 22.0549H71.2738V24.5722H73.218Z" fill="black"/>
<path d="M78.364 21.2013C78.364 20.6623 78.787 20.237 79.323 20.237C79.859 20.237 80.2821 20.6623 80.2821 21.2013V24.1439L83.8198 20.6099C84.0574 20.371 84.2921 20.2341 84.6282 20.2341C85.1642 20.2341 85.5119 20.6478 85.5119 21.1227C85.5119 21.4228 85.3758 21.65 85.1642 21.8481L82.7101 24.1527L85.3874 27.5352C85.538 27.7246 85.6481 27.9227 85.6481 28.2112C85.6481 28.7501 85.2367 29.1493 84.6775 29.1493C84.3037 29.1493 84.0806 28.9628 83.8691 28.686L81.3773 25.4026L80.2792 26.431V28.1849C80.2792 28.7239 79.8562 29.1493 79.3201 29.1493C78.7841 29.1493 78.3611 28.7239 78.3611 28.1849V21.2013H78.364Z" fill="black"/>
<path fill-rule="evenodd" clip-rule="evenodd" d="M2.65105 15.3161C2.4772 11.0071 3.9404 6.63107 7.07543 3.21357C8.09242 2.10354 9.22242 1.1654 10.4335 0.393329L10.4364 0.396242C11.41 -0.209759 12.7022 -0.122355 13.5831 0.69633C14.6435 1.68108 14.7102 3.34176 13.7308 4.411C13.5773 4.57707 13.4063 4.71692 13.2267 4.83637L13.2296 4.8422C12.398 5.37245 11.6186 6.01924 10.9203 6.78257C8.76173 9.13374 7.75632 12.1434 7.87512 15.1064C7.99391 18.0694 9.23691 20.9887 11.578 23.1563C12.3372 23.8584 13.1629 24.4411 14.0351 24.9014L14.0264 24.916C14.3335 25.0325 14.6261 25.2074 14.8811 25.4433C15.9416 26.4281 16.0082 28.0888 15.0289 29.158C14.1336 30.134 12.6704 30.271 11.6157 29.5309L11.6012 29.5601C10.3321 28.89 9.1297 28.0451 8.02868 27.0224C4.63289 23.8672 2.82489 19.6222 2.65105 15.3161Z" fill="black"/>
<path fill-rule="evenodd" clip-rule="evenodd" d="M5.28779 17.0934C4.1491 18.3345 2.21361 18.4132 0.979306 17.2682C-0.255 16.1232 -0.333231 14.177 0.80546 12.9358C1.94415 11.6947 3.87963 11.616 5.11394 12.761C6.34825 13.906 6.42648 15.8522 5.28779 17.0934Z" fill="#ABABAB"/>
<path fill-rule="evenodd" clip-rule="evenodd" d="M102.346 14.6868C102.52 18.9958 101.057 23.3718 97.9215 26.7893C96.9045 27.8994 95.7745 28.8375 94.5634 29.6096L94.5605 29.6067C93.5869 30.2127 92.2947 30.1253 91.4139 29.3066C90.3534 28.3218 90.2868 26.6612 91.2661 25.5919C91.4197 25.4258 91.5906 25.286 91.7703 25.1665L91.7674 25.1607C92.5989 24.6305 93.3783 23.9837 94.0766 23.2203C96.2352 20.8692 97.2406 17.8596 97.1218 14.8966C97.003 11.9336 95.76 9.01426 93.4189 6.84664C92.6598 6.1445 91.834 5.5618 90.9619 5.10147L90.9706 5.08691C90.6634 4.97037 90.3708 4.79556 90.1158 4.55957C89.0554 3.57481 88.9887 1.91414 89.9681 0.844893C90.8634 -0.131119 92.3266 -0.268052 93.3812 0.471969L93.3957 0.442835C94.6648 1.11293 95.8672 1.95784 96.9682 2.98047C100.367 6.13575 102.175 10.3778 102.346 14.6868Z" fill="black"/>
<path fill-rule="evenodd" clip-rule="evenodd" d="M99.7122 12.9096C100.851 11.6685 102.786 11.5898 104.021 12.7348C105.255 13.8798 105.333 15.826 104.195 17.0671C103.056 18.3083 101.12 18.3869 99.886 17.2419C98.6517 16.094 98.5735 14.1478 99.7122 12.9096Z" fill="#ABABAB"/>
</g>
<defs>
<clipPath id="clip0">
<rect width="105" height="30" fill="white"/>
</clipPath>
</defs>
</svg>
