<svg width="445" height="42" viewBox="0 0 445 42" fill="none" xmlns="http://www.w3.org/2000/svg">
<path d="M0 24.2564V24.1764C0 15.9064 6.44 9.13641 15.25 9.13641C19.65 9.13641 22.56 10.1364 25.18 11.9564C25.8 12.4164 26.51 13.2864 26.51 14.5364C26.51 16.2764 25.1 17.6964 23.35 17.6964C22.44 17.6964 21.85 17.3664 21.4 17.0364C19.66 15.7864 17.79 15.0464 15.04 15.0464C10.39 15.0464 6.69 19.1564 6.69 24.1064V24.1864C6.69 29.5064 10.35 33.4064 15.5 33.4064C17.83 33.4064 19.9 32.8264 21.52 31.6664V27.5164H17.2C15.66 27.5164 14.42 26.3164 14.42 24.7764C14.42 23.2364 15.67 21.9964 17.2 21.9964H24.51C26.3 21.9964 27.71 23.4064 27.71 25.1964V32.2564C27.71 34.1264 27 35.4164 25.47 36.3264C23.1 37.7764 19.65 39.2364 15.29 39.2364C6.23 39.2164 0 32.8564 0 24.2564Z" fill="#003595"/>
<path d="M65.07 24.2564V24.1764C65.07 15.9064 71.59 9.13641 80.56 9.13641C89.53 9.13641 95.97 15.8264 95.97 24.0864V24.1664C95.97 32.4364 89.45 39.2064 80.47 39.2064C71.49 39.2064 65.07 32.5264 65.07 24.2564ZM89.28 24.2564V24.1764C89.28 19.1864 85.62 15.0364 80.47 15.0364C75.32 15.0364 71.75 19.1064 71.75 24.0964V24.1764C71.75 29.1564 75.41 33.3164 80.56 33.3164C85.71 33.3164 89.28 29.2464 89.28 24.2564Z" fill="#003595"/>
<path d="M30.81 24.2564V24.1764C30.81 15.9064 37.33 9.13641 46.3 9.13641C55.27 9.13641 61.71 15.8264 61.71 24.0864V24.1664C61.71 32.4364 55.19 39.2064 46.21 39.2064C37.23 39.2064 30.81 32.5264 30.81 24.2564ZM55.03 24.2564V24.1764C55.03 19.1864 51.37 15.0364 46.22 15.0364C41.07 15.0364 37.5 19.1064 37.5 24.0964V24.1764C37.5 29.1564 41.16 33.3164 46.31 33.3164C51.46 33.3164 55.03 29.2464 55.03 24.2564Z" fill="#003595"/>
<path d="M98.57 12.8364C98.57 11.0464 99.98 9.63641 101.77 9.63641H109.91C119.05 9.63641 125.36 15.9064 125.36 24.0964V24.1764C125.36 32.3564 119.05 38.7164 109.91 38.7164H101.77C99.98 38.7164 98.57 37.3064 98.57 35.5164V12.8364ZM109.92 32.9364C115.15 32.9364 118.69 29.4064 118.69 24.2564V24.1764C118.69 19.0264 115.16 15.4064 109.92 15.4064H104.98V32.9364H109.92Z" fill="#003595"/>
<path d="M264.95 24.1564V24.0764C264.95 15.8664 271.14 9.13644 280.01 9.13644C284.34 9.13644 287.27 10.2964 289.67 12.0664C290.33 12.5564 290.91 13.4664 290.91 14.5864C290.91 16.3164 289.51 17.6864 287.77 17.6864C286.9 17.6864 286.33 17.3564 285.87 17.0664C284.1 15.7464 282.24 15.0064 279.97 15.0064C275.1 15.0064 271.59 19.0464 271.59 24.0064V24.0864C271.59 29.0364 275.02 33.1664 279.97 33.1664C282.65 33.1664 284.43 32.3364 286.24 30.8964C286.73 30.4864 287.4 30.1964 288.14 30.1964C289.75 30.1964 291.11 31.5164 291.11 33.1264C291.11 34.1164 290.62 34.8964 290.04 35.3964C287.44 37.6664 284.39 39.0264 279.76 39.0264C271.26 39.0164 264.95 32.4464 264.95 24.1564Z" fill="#00A7E1"/>
<path d="M294.12 34.4264L304.19 11.6864C304.89 10.1164 306.17 9.16644 307.9 9.16644H308.27C310 9.16644 311.24 10.1164 311.94 11.6864L322.01 34.4264C322.22 34.8764 322.34 35.2964 322.34 35.7064C322.34 37.3964 321.02 38.7564 319.33 38.7564C317.84 38.7564 316.85 37.8864 316.28 36.5664L314.34 32.0264H301.63L299.61 36.7764C299.07 38.0164 298 38.7564 296.68 38.7564C295.03 38.7564 293.75 37.4364 293.75 35.7864C293.75 35.3364 293.92 34.8864 294.12 34.4264ZM311.99 26.4264L307.99 16.8964L303.99 26.4264H311.99Z" fill="#00A7E1"/>
<path d="M326.39 12.6465C326.39 10.8765 327.79 9.46645 329.57 9.46645H330.27C331.63 9.46645 332.58 10.1665 333.16 11.1165L340.84 23.6165L348.56 11.0665C349.22 9.99645 350.13 9.45645 351.41 9.45645H352.11C353.88 9.45645 355.29 10.8564 355.29 12.6364V35.5765C355.29 37.3465 353.89 38.7565 352.11 38.7565C350.38 38.7565 348.97 37.3165 348.97 35.5765V21.1764L343.4 29.7565C342.74 30.7465 341.91 31.3665 340.76 31.3665C339.6 31.3665 338.78 30.7465 338.12 29.7565L332.63 21.2965V35.6565C332.63 37.3865 331.23 38.7565 329.49 38.7565C327.76 38.7565 326.4 37.3965 326.4 35.6565V12.6465H326.39Z" fill="#00A7E1"/>
<path d="M360.41 12.8064C360.41 11.0364 361.81 9.62643 363.59 9.62643H371.68C380.76 9.62643 387.03 15.8564 387.03 23.9864V24.0664C387.03 32.1964 380.76 38.5064 371.68 38.5064H363.59C361.82 38.5064 360.41 37.1064 360.41 35.3264V12.8064ZM371.67 32.7764C376.87 32.7764 380.38 29.2664 380.38 24.1564V24.0764C380.38 18.9564 376.87 15.3664 371.67 15.3664H366.76V32.7764H371.67Z" fill="#00A7E1"/>
<path d="M391.65 35.3364V12.8064C391.65 11.0364 393.05 9.62643 394.83 9.62643H410.84C412.41 9.62643 413.69 10.9064 413.69 12.4764C413.69 14.0464 412.41 15.2864 410.84 15.2864H397.96V21.1464H408.98C410.55 21.1464 411.83 22.4264 411.83 23.9964C411.83 25.5664 410.55 26.8064 408.98 26.8064H397.96V32.8764H411.04C412.61 32.8764 413.89 34.1564 413.89 35.7264C413.89 37.2964 412.61 38.5364 411.04 38.5364H394.82C393.05 38.5164 391.65 37.1164 391.65 35.3364Z" fill="#00A7E1"/>
<path d="M418.76 12.6464C418.76 10.8764 420.16 9.46643 421.94 9.46643H422.6C424.13 9.46643 425.03 10.2064 425.9 11.3264L438.15 27.4164V12.5164C438.15 10.7864 439.55 9.37643 441.29 9.37643C443.02 9.37643 444.43 10.7764 444.43 12.5164V35.5064C444.43 37.2764 443.03 38.6864 441.25 38.6864H441.04C439.51 38.6864 438.61 37.9464 437.74 36.8264L425.03 20.1564V35.6264C425.03 37.3564 423.63 38.7664 421.89 38.7664C420.15 38.7664 418.75 37.3664 418.75 35.6264V12.6464H418.76Z" fill="#00A7E1"/>
<path fill-rule="evenodd" clip-rule="evenodd" d="M350.53 5.56645C351.94 6.41645 353.79 5.95645 354.64 4.53645C355.49 3.12645 355.03 1.27645 353.61 0.426448C352.2 -0.423552 350.35 0.0364491 349.5 1.45645C348.65 2.86645 349.12 4.71645 350.53 5.56645Z" fill="#00A7E1"/>
<path d="M129.95 14.1565C129.83 13.7865 129.7 13.3365 129.7 12.9665C129.7 11.2065 131.17 9.89647 132.93 9.89647C134.4 9.89647 135.59 10.8365 136 12.1465L141.68 29.6765L147.4 12.3065C147.89 10.8365 148.99 9.81647 150.59 9.81647H151.08C152.67 9.81647 153.78 10.7965 154.27 12.3065L159.99 29.6765L165.67 12.1465C166.08 10.9165 167.14 9.89647 168.69 9.89647C170.41 9.89647 171.8 11.2065 171.8 12.9165C171.8 13.2865 171.68 13.7765 171.55 14.1465L163.54 36.6265C162.97 38.2165 161.78 39.1965 160.27 39.1965H159.62C158.11 39.1965 156.96 38.2565 156.39 36.6265L150.75 20.2365L145.11 36.6265C144.54 38.2565 143.39 39.1965 141.88 39.1965H141.23C139.72 39.1965 138.53 38.2165 137.96 36.6265L129.95 14.1565Z" fill="#D41367"/>
<path d="M209.95 13.2965C209.95 11.5365 211.34 10.1465 213.1 10.1465H223.03C226.67 10.1465 229.49 11.1665 231.37 13.0465C232.96 14.6365 233.82 16.8865 233.82 19.5865V19.6665C233.82 24.1665 231.57 26.9465 228.1 28.3765L232.47 33.6865C233.08 34.4665 233.49 35.1165 233.49 36.0965C233.49 37.8565 232.02 38.9965 230.51 38.9965C229.08 38.9965 228.14 38.3065 227.4 37.3665L221.27 29.5965H216.24V35.8465C216.24 37.6065 214.85 38.9965 213.09 38.9965C211.33 38.9965 209.94 37.6065 209.94 35.8465V13.2965H209.95ZM222.62 24.0465C225.69 24.0465 227.44 22.4165 227.44 19.9965V19.9165C227.44 17.2165 225.56 15.8265 222.49 15.8265H216.24V24.0465H222.62Z" fill="#D41367"/>
<path d="M237.4 13.0565C237.4 11.2965 238.79 9.90646 240.55 9.90646C242.31 9.90646 243.7 11.2965 243.7 13.0565V22.6665L255.31 11.1365C256.09 10.3565 256.86 9.90646 257.97 9.90646C259.73 9.90646 260.87 11.2565 260.87 12.8065C260.87 13.7865 260.42 14.5265 259.73 15.1765L251.68 22.6965L260.47 33.7365C260.96 34.3465 261.33 35.0065 261.33 35.9465C261.33 37.7065 259.98 39.0165 258.14 39.0165C256.91 39.0165 256.18 38.4065 255.48 37.5065L247.31 26.7965L243.71 30.1465V35.8665C243.71 37.6265 242.32 39.0165 240.56 39.0165C238.8 39.0165 237.41 37.6265 237.41 35.8665V13.0565H237.4Z" fill="#D41367"/>
<path fill-rule="evenodd" clip-rule="evenodd" d="M199.88 16.1165L199.9 16.0965C199.12 15.1565 198.21 14.3065 197.16 13.5665C193.94 11.2865 190.1 10.5265 186.49 11.1365C182.88 11.7465 179.51 13.7465 177.23 16.9665C176.49 18.0065 175.91 19.1165 175.49 20.2665L175.53 20.2765C175.16 21.3565 175.53 22.5965 176.51 23.2965C177.71 24.1465 179.37 23.8665 180.21 22.6665C180.41 22.3865 180.55 22.0765 180.62 21.7565C180.87 21.1665 181.18 20.5865 181.57 20.0365C183 18.0165 185.12 16.7665 187.38 16.3765C189.64 15.9865 192.06 16.4665 194.08 17.8965C194.67 18.3165 195.2 18.7965 195.66 19.3265C195.83 19.5665 196.04 19.7865 196.3 19.9765C197.5 20.8265 199.16 20.5465 200 19.3465C200.72 18.3465 200.64 17.0165 199.88 16.1165Z" fill="#00A7E1"/>
<path d="M188.949 12.7726C189.854 11.9708 189.939 10.5868 189.137 9.68122C188.335 8.77566 186.951 8.69154 186.045 9.49332C185.14 10.2951 185.056 11.6792 185.857 12.5847C186.659 13.4903 188.043 13.5744 188.949 12.7726Z" fill="#B4BD00"/>
<path fill-rule="evenodd" clip-rule="evenodd" d="M186.17 36.7465C186.01 36.6365 185.84 36.5465 185.67 36.4665L185.68 36.4465C184.72 36.1665 183.78 35.7565 182.88 35.2065C180.11 33.5265 178.29 30.8865 177.58 27.9765C176.87 25.0665 177.27 21.8765 178.95 19.1165C179.49 18.2165 180.14 17.4265 180.86 16.7265L180.84 16.7065C180.92 16.6165 181 16.5265 181.07 16.4265C181.92 15.2265 181.64 13.5665 180.44 12.7265C179.28 11.9065 177.68 12.1465 176.81 13.2665C175.91 14.1865 175.09 15.2165 174.4 16.3665C171.96 20.3865 171.38 25.0165 172.42 29.2565C173.46 33.4865 176.11 37.3265 180.13 39.7765C181.24 40.4465 182.4 40.9765 183.58 41.3665C183.73 41.4365 183.89 41.4865 184.06 41.5265C184.11 41.5365 184.16 41.5565 184.21 41.5765L184.22 41.5565C185.19 41.7165 186.22 41.3365 186.82 40.4765C187.65 39.2565 187.36 37.5965 186.17 36.7465Z" fill="#003595"/>
<path fill-rule="evenodd" clip-rule="evenodd" d="M206.09 22.2965C205.36 17.9965 202.98 13.9765 199.15 11.2565C197.91 10.3765 196.58 9.68646 195.22 9.17646C194.12 8.78646 192.86 9.14646 192.15 10.1365C191.3 11.3365 191.58 12.9965 192.78 13.8365C192.97 13.9665 193.17 14.0665 193.37 14.1465V14.1565C194.31 14.5065 195.22 14.9765 196.07 15.5865C198.71 17.4565 200.34 20.2165 200.85 23.1765C201.35 26.1365 200.73 29.2765 198.86 31.9165C198.25 32.7765 197.55 33.5265 196.78 34.1665L196.79 34.1765C196.51 34.3565 196.26 34.5865 196.05 34.8765C195.2 36.0765 195.48 37.7365 196.68 38.5765C197.78 39.3565 199.26 39.1765 200.15 38.2265L200.17 38.2565C201.29 37.3265 202.31 36.2365 203.19 34.9865C205.91 31.1665 206.82 26.5965 206.09 22.2965Z" fill="#D41367"/>
<path fill-rule="evenodd" clip-rule="evenodd" d="M204.25 23.8365C205.23 24.5365 206.61 24.2965 207.31 23.3165C208.01 22.3365 207.77 20.9565 206.79 20.2565C205.81 19.5565 204.43 19.7965 203.73 20.7765C203.03 21.7665 203.27 23.1465 204.25 23.8365Z" fill="#003595"/>
<path fill-rule="evenodd" clip-rule="evenodd" d="M171.14 30.7765C170.15 30.0765 169.92 28.7065 170.62 27.7165C171.32 26.7265 172.69 26.4965 173.68 27.1965C174.67 27.8965 174.9 29.2665 174.2 30.2565C173.5 31.2465 172.13 31.4765 171.14 30.7765Z" fill="#D41367"/>
</svg>
