<?xml version="1.0" encoding="UTF-8" standalone="no"?>
<!DOCTYPE svg PUBLIC "-//W3C//DTD SVG 1.1//EN" "http://www.w3.org/Graphics/SVG/1.1/DTD/svg11.dtd">
<svg width="100%" height="100%" viewBox="0 0 150 30" version="1.1" xmlns="http://www.w3.org/2000/svg" xmlns:xlink="http://www.w3.org/1999/xlink" xml:space="preserve" xmlns:serif="http://www.serif.com/" style="fill-rule:evenodd;clip-rule:evenodd;stroke-linejoin:round;stroke-miterlimit:2;">
    <g transform="matrix(1,0,0,1,-30,-75)">
        <path d="M180,98.368L176.73,98.368L176.73,90.215C176.677,88.138 175.781,87.203 173.882,87.203C171.825,87.203 170.295,88.553 170.242,90.423C170.19,92.811 170.242,95.252 170.242,97.641L170.242,98.368L166.973,98.368L166.973,85.334L169.979,85.334L169.979,87.255C171.508,85.386 173.355,84.711 175.517,84.918C177.785,85.126 179.42,86.113 180,88.449L180,98.368Z" style="fill:rgb(42,40,40);fill-rule:nonzero;"/>
        <path d="M113.808,98.368L110.538,98.368L110.538,85.282L113.65,85.282L113.65,86.891C113.703,86.944 113.755,86.944 113.755,86.995C114.863,85.541 116.392,84.866 118.186,84.866C119.979,84.866 121.508,85.282 122.511,86.995C123.407,85.957 124.462,85.23 125.833,85.022C127.047,84.814 128.26,84.866 129.473,85.178C131.002,85.593 132.004,86.632 132.057,88.19C132.162,91.565 132.109,94.94 132.109,98.368L128.893,98.368L128.893,97.589C128.893,94.94 128.893,92.292 128.84,89.696C128.787,88.086 128.154,87.411 126.73,87.255C124.989,87.047 123.671,87.774 123.249,89.176C123.091,89.748 123.038,90.319 123.038,90.89L123.038,98.42L119.715,98.42L119.715,90.007C119.715,89.021 119.61,88.034 118.607,87.515C117.553,86.995 116.445,87.047 115.391,87.67C114.283,88.346 113.861,89.384 113.861,90.63L113.861,97.693C113.808,97.848 113.808,98.056 113.808,98.368Z" style="fill:rgb(42,40,40);fill-rule:nonzero;"/>
        <path d="M92.078,86.268L88.861,86.268C88.755,86.268 88.544,86.113 88.491,86.009C87.7,83.776 86.013,82.789 83.692,82.789C81.371,82.789 79.525,83.672 78.365,85.749C76.941,88.397 77.31,92.24 79.103,94.421C81.108,96.81 86.276,97.225 88.017,93.746C88.333,93.123 88.491,92.396 88.755,91.669L92.078,91.669C91.973,93.434 91.34,94.94 90.179,96.239C88.913,97.641 87.278,98.42 85.38,98.679C82.373,99.147 79.578,98.679 77.152,96.706C74.198,94.369 73.143,90.111 74.409,86.32C75.622,82.789 78.787,80.452 82.637,80.245C84.694,80.141 86.698,80.4 88.597,81.387C90.707,82.426 92.025,84.295 92.078,86.268Z" style="fill:rgb(42,40,40);fill-rule:nonzero;"/>
        <path d="M145.348,86.84L145.348,80.245L148.618,80.245L148.618,98.368L145.559,98.368L145.559,96.654C143.871,98.731 141.709,98.991 139.388,98.679C136.223,98.212 134.114,95.979 133.903,92.759C133.85,91.721 133.85,90.682 134.061,89.696C134.747,86.58 137.436,84.711 140.654,84.918C142.5,84.97 144.03,85.438 145.348,86.84ZM145.506,91.773C145.453,91.254 145.401,90.786 145.295,90.371C144.926,88.449 143.502,87.255 141.603,87.203C139.494,87.099 137.964,88.138 137.436,90.059C137.226,90.89 137.12,91.721 137.173,92.552C137.278,94.785 138.808,96.239 140.917,96.446C142.975,96.602 144.663,95.408 145.19,93.331C145.401,92.811 145.453,92.24 145.506,91.773Z" style="fill:rgb(42,40,40);fill-rule:nonzero;"/>
        <path d="M103.629,97.225C101.203,98.731 98.671,99.199 96.034,98.316C93.924,97.641 93.028,95.979 93.45,93.902C93.713,92.708 94.452,91.825 95.612,91.513C97.089,91.098 98.671,90.89 100.201,90.63C100.939,90.475 101.677,90.423 102.416,90.267C103.049,90.111 103.523,89.748 103.576,89.021C103.629,88.397 103.312,87.826 102.627,87.515C101.203,86.944 99.779,86.944 98.407,87.567C97.722,87.878 97.511,88.242 97.194,89.228L93.977,89.228C94.082,87.67 94.768,86.476 96.139,85.853C98.988,84.503 101.941,84.451 104.789,85.749C106.108,86.32 106.741,87.411 106.741,88.917L106.741,94.94C106.741,96.446 106.741,96.498 108.323,96.446L108.323,98.16C108.323,98.264 108.164,98.472 108.059,98.472C107.163,98.575 106.318,98.731 105.422,98.679C104.473,98.627 103.84,98.108 103.629,97.225ZM103.312,92.033C102.152,92.188 101.044,92.344 99.937,92.552C99.093,92.708 98.302,92.863 97.511,93.227C96.825,93.486 96.614,94.162 96.614,94.888C96.667,95.564 97.089,95.927 97.669,96.135C99.251,96.706 100.781,96.602 102.205,95.771C102.785,95.46 103.207,94.94 103.207,94.265C103.365,93.486 103.312,92.708 103.312,92.033Z" style="fill:rgb(42,40,40);fill-rule:nonzero;"/>
        <path d="M164.915,92.552L153.998,92.552C153.839,94.11 154.894,95.719 156.424,96.187C158.586,96.862 160.486,96.187 161.593,94.265L164.705,94.265C164.494,95.304 163.967,96.135 163.228,96.862C160.486,99.458 155.053,99.406 152.468,96.654C150.411,94.473 150.2,91.825 151.203,89.176C152.152,86.58 154.209,85.178 157.004,84.918C160.063,84.607 162.595,85.593 164.177,88.293C164.863,89.592 165.074,90.994 164.915,92.552ZM161.54,90.63C161.434,88.501 159.694,87.047 157.532,87.203C155.527,87.359 153.892,88.917 154.051,90.63L161.54,90.63Z" style="fill:rgb(42,40,40);fill-rule:nonzero;"/>
        <path d="M63.702,99.095L55.422,99.095L55.422,98.212L57.848,98.212C57.848,98.212 59.167,98.004 58.534,96.81C58.481,96.758 58.27,96.706 58.27,96.706L54.842,96.706L49.937,98.991L49.937,104.132L59.536,104.132C59.536,104.132 63.333,103.301 63.702,99.095Z" style="fill:rgb(42,40,40);"/>
        <path d="M34.589,99.095L42.869,99.095L42.869,98.212L40.443,98.212C40.443,98.212 39.125,98.004 39.758,96.81C39.81,96.758 40.021,96.706 40.021,96.706L43.45,96.706L48.355,98.991L48.355,104.132L38.755,104.132C38.755,104.132 34.958,103.301 34.589,99.095Z" style="fill:rgb(42,40,40);"/>
        <path d="M43.766,95.667L35.433,95.667L35.433,96.55L37.859,96.55C37.859,96.55 39.177,96.758 38.544,97.952C38.492,98.004 38.281,98.056 38.281,98.056L34.905,98.056L30,95.771L30,90.63L39.599,90.63C39.599,90.63 43.344,91.461 43.766,95.667Z" style="fill:rgb(42,40,40);"/>
        <path d="M63.702,80.037L55.422,80.037L55.422,80.92L57.848,80.92C57.848,80.92 59.167,81.128 58.534,82.322C58.481,82.374 58.27,82.426 58.27,82.426L54.842,82.426L49.937,80.141L49.937,75L59.536,75C59.536,75 63.333,75.831 63.702,80.037Z" style="fill:rgb(42,40,40);"/>
        <path d="M34.589,80.037L42.869,80.037L42.869,80.92L40.443,80.92C40.443,80.92 39.125,81.128 39.758,82.322C39.81,82.374 40.021,82.426 40.021,82.426L43.45,82.426L48.355,80.141L48.355,75L38.755,75C38.755,75 34.958,75.831 34.589,80.037Z" style="fill:rgb(42,40,40);"/>
        <path d="M43.766,83.464L35.433,83.464L35.433,82.582L37.859,82.582C37.859,82.582 39.177,82.374 38.544,81.179C38.492,81.128 38.281,81.076 38.281,81.076L34.905,81.076L30,83.36L30,88.501L39.599,88.501C39.599,88.501 43.344,87.67 43.766,83.464Z" style="fill:rgb(42,40,40);"/>
        <path d="M54.736,83.464L63.017,83.464L63.017,82.582L60.591,82.582C60.591,82.582 59.272,82.374 59.905,81.179C59.958,81.128 60.169,81.076 60.169,81.076L63.597,81.076L68.502,83.36L68.502,88.501L58.956,88.501C58.956,88.501 55.158,87.67 54.736,83.464Z" style="fill:rgb(42,40,40);"/>
        <path d="M54.736,95.667L63.017,95.667L63.017,96.55L60.591,96.55C60.591,96.55 59.272,96.758 59.905,97.952C59.958,98.004 60.169,98.056 60.169,98.056L63.597,98.056L68.502,95.771L68.502,90.63L58.956,90.63C58.956,90.63 55.158,91.461 54.736,95.667Z" style="fill:rgb(42,40,40);"/>
    </g>
</svg>
