<?xml version="1.0" encoding="UTF-8" standalone="no"?>
<!DOCTYPE svg PUBLIC "-//W3C//DTD SVG 1.1//EN" "http://www.w3.org/Graphics/SVG/1.1/DTD/svg11.dtd">
<svg width="100%" height="100%" viewBox="0 0 960 68" version="1.1" xmlns="http://www.w3.org/2000/svg" xmlns:xlink="http://www.w3.org/1999/xlink" xml:space="preserve" xmlns:serif="http://www.serif.com/" style="fill-rule:evenodd;clip-rule:evenodd;">
    <g transform="matrix(1,0,0,1,-30,-131)">
        <rect x="30" y="131" width="960" height="68" style="fill:rgb(102,51,255);fill-opacity:0.2;"/>
    </g>
    <g transform="matrix(1,0,0,1,-30,-131)">
        <path d="M45.832,177.5L339.042,177.5" style="fill:none;fill-rule:nonzero;stroke:black;stroke-width:3px;"/>
    </g>
    <g transform="matrix(1,0,0,1,-30,-131)">
        <path d="M52.468,158.635C51.386,158.635 50.548,159.043 49.954,159.86C49.36,160.67 49.064,161.802 49.064,163.255C49.064,166.28 50.198,167.792 52.468,167.792C53.421,167.792 54.574,167.554 55.929,167.078L55.929,169.49C54.815,169.954 53.572,170.186 52.199,170.186C50.226,170.186 48.717,169.589 47.672,168.395C46.627,167.195 46.104,165.476 46.104,163.237C46.104,161.827 46.361,160.593 46.874,159.535C47.387,158.471 48.123,157.658 49.082,157.095C50.047,156.526 51.176,156.242 52.468,156.242C53.786,156.242 55.109,156.56 56.439,157.197L55.511,159.535C55.004,159.294 54.494,159.084 53.981,158.904C53.467,158.725 52.963,158.635 52.468,158.635ZM60.855,164.795C60.855,165.822 61.022,166.598 61.356,167.124C61.696,167.65 62.247,167.913 63.007,167.913C63.762,167.913 64.303,167.653 64.631,167.133C64.965,166.608 65.132,165.828 65.132,164.795C65.132,163.769 64.965,162.999 64.631,162.485C64.297,161.972 63.749,161.715 62.989,161.715C62.234,161.715 61.69,161.972 61.356,162.485C61.022,162.993 60.855,163.763 60.855,164.795ZM68.026,164.795C68.026,166.484 67.581,167.804 66.69,168.757C65.8,169.709 64.56,170.186 62.97,170.186C61.974,170.186 61.096,169.969 60.335,169.536C59.575,169.097 58.99,168.469 58.582,167.653C58.174,166.836 57.97,165.884 57.97,164.795C57.97,163.101 58.412,161.783 59.296,160.843C60.181,159.903 61.424,159.433 63.026,159.433C64.022,159.433 64.9,159.65 65.661,160.083C66.421,160.515 67.006,161.137 67.414,161.947C67.822,162.757 68.026,163.707 68.026,164.795ZM76.153,159.433C76.537,159.433 76.855,159.461 77.109,159.517L76.896,162.17C76.667,162.108 76.388,162.077 76.061,162.077C75.158,162.077 74.453,162.309 73.945,162.773C73.444,163.237 73.194,163.886 73.194,164.721L73.194,170L70.364,170L70.364,159.628L72.507,159.628L72.925,161.372L73.064,161.372C73.386,160.791 73.819,160.324 74.363,159.971C74.913,159.612 75.51,159.433 76.153,159.433ZM81.247,164.795C81.247,165.822 81.414,166.598 81.748,167.124C82.088,167.65 82.638,167.913 83.399,167.913C84.153,167.913 84.695,167.653 85.022,167.133C85.356,166.608 85.523,165.828 85.523,164.795C85.523,163.769 85.356,162.999 85.022,162.485C84.689,161.972 84.141,161.715 83.38,161.715C82.626,161.715 82.082,161.972 81.748,162.485C81.414,162.993 81.247,163.763 81.247,164.795ZM88.418,164.795C88.418,166.484 87.973,167.804 87.082,168.757C86.191,169.709 84.951,170.186 83.362,170.186C82.366,170.186 81.488,169.969 80.727,169.536C79.966,169.097 79.382,168.469 78.974,167.653C78.565,166.836 78.361,165.884 78.361,164.795C78.361,163.101 78.804,161.783 79.688,160.843C80.572,159.903 81.816,159.433 83.418,159.433C84.413,159.433 85.292,159.65 86.052,160.083C86.813,160.515 87.397,161.137 87.806,161.947C88.214,162.757 88.418,163.707 88.418,164.795ZM100.33,170L97.501,170L97.501,163.942C97.501,163.194 97.368,162.634 97.102,162.263C96.836,161.885 96.412,161.697 95.831,161.697C95.039,161.697 94.467,161.963 94.114,162.495C93.762,163.02 93.585,163.896 93.585,165.12L93.585,170L90.756,170L90.756,159.628L92.918,159.628L93.298,160.955L93.456,160.955C93.771,160.454 94.204,160.076 94.754,159.823C95.311,159.563 95.942,159.433 96.647,159.433C97.853,159.433 98.768,159.761 99.393,160.417C100.018,161.066 100.33,162.006 100.33,163.237L100.33,170ZM109.83,170L109.283,168.59L109.208,168.59C108.732,169.19 108.241,169.607 107.733,169.842C107.232,170.071 106.577,170.186 105.767,170.186C104.771,170.186 103.985,169.901 103.41,169.332C102.841,168.763 102.557,167.953 102.557,166.901C102.557,165.8 102.94,164.99 103.707,164.471C104.48,163.945 105.643,163.654 107.195,163.599L108.995,163.543L108.995,163.088C108.995,162.037 108.457,161.511 107.381,161.511C106.552,161.511 105.578,161.762 104.458,162.263L103.521,160.352C104.715,159.727 106.039,159.415 107.492,159.415C108.884,159.415 109.951,159.718 110.693,160.324C111.435,160.93 111.806,161.851 111.806,163.088L111.806,170L109.83,170ZM108.995,165.194L107.9,165.231C107.078,165.256 106.465,165.405 106.063,165.677C105.661,165.949 105.46,166.363 105.46,166.92C105.46,167.718 105.918,168.117 106.833,168.117C107.489,168.117 108.012,167.928 108.401,167.551C108.797,167.174 108.995,166.673 108.995,166.048L108.995,165.194ZM117.196,170L113.244,159.628L116.204,159.628L118.208,165.538C118.43,166.286 118.569,166.994 118.625,167.662L118.681,167.662C118.712,167.068 118.851,166.36 119.098,165.538L121.093,159.628L124.052,159.628L120.1,170L117.196,170ZM125.425,156.947C125.425,156.025 125.939,155.564 126.965,155.564C127.992,155.564 128.505,156.025 128.505,156.947C128.505,157.386 128.375,157.729 128.116,157.977C127.862,158.218 127.479,158.338 126.965,158.338C125.939,158.338 125.425,157.875 125.425,156.947ZM128.375,170L125.546,170L125.546,159.628L128.375,159.628L128.375,170ZM137.143,159.433C137.526,159.433 137.845,159.461 138.098,159.517L137.885,162.17C137.656,162.108 137.378,162.077 137.05,162.077C136.147,162.077 135.442,162.309 134.935,162.773C134.434,163.237 134.183,163.886 134.183,164.721L134.183,170L131.354,170L131.354,159.628L133.497,159.628L133.914,161.372L134.053,161.372C134.375,160.791 134.808,160.324 135.352,159.971C135.903,159.612 136.499,159.433 137.143,159.433ZM147.329,170L146.949,168.673L146.8,168.673C146.497,169.156 146.067,169.53 145.511,169.796C144.954,170.056 144.32,170.186 143.609,170.186C142.39,170.186 141.472,169.861 140.854,169.211C140.235,168.556 139.926,167.616 139.926,166.391L139.926,159.628L142.755,159.628L142.755,165.686C142.755,166.434 142.888,166.997 143.154,167.375C143.42,167.746 143.844,167.931 144.425,167.931C145.217,167.931 145.789,167.668 146.142,167.143C146.494,166.611 146.67,165.732 146.67,164.508L146.67,159.628L149.5,159.628L149.5,170L147.329,170ZM159.705,166.92C159.705,167.984 159.334,168.794 158.592,169.351C157.856,169.907 156.752,170.186 155.28,170.186C154.525,170.186 153.882,170.133 153.35,170.028C152.818,169.929 152.32,169.78 151.856,169.583L151.856,167.245C152.382,167.492 152.973,167.699 153.628,167.866C154.29,168.033 154.872,168.117 155.373,168.117C156.399,168.117 156.913,167.82 156.913,167.226C156.913,167.003 156.845,166.824 156.708,166.688C156.572,166.546 156.337,166.388 156.003,166.215C155.669,166.035 155.224,165.828 154.667,165.593C153.87,165.259 153.282,164.95 152.905,164.666C152.534,164.381 152.262,164.056 152.088,163.691C151.921,163.32 151.838,162.866 151.838,162.328C151.838,161.406 152.194,160.695 152.905,160.194C153.622,159.687 154.637,159.433 155.948,159.433C157.197,159.433 158.412,159.705 159.594,160.25L158.74,162.291C158.221,162.068 157.735,161.885 157.284,161.743C156.832,161.601 156.371,161.53 155.901,161.53C155.066,161.53 154.649,161.756 154.649,162.207C154.649,162.461 154.782,162.68 155.048,162.866C155.32,163.051 155.911,163.326 156.82,163.691C157.63,164.019 158.224,164.325 158.601,164.61C158.978,164.894 159.257,165.222 159.436,165.593C159.615,165.964 159.705,166.407 159.705,166.92ZM166.125,164.795C166.125,163.156 166.363,161.623 166.839,160.194C167.322,158.765 168.014,157.513 168.917,156.437L171.237,156.437C170.365,157.63 169.706,158.941 169.261,160.37C168.815,161.799 168.593,163.268 168.593,164.777C168.593,166.292 168.819,167.758 169.27,169.174C169.728,170.584 170.377,171.862 171.218,173.006L168.917,173.006C168.008,171.954 167.316,170.727 166.839,169.323C166.363,167.919 166.125,166.41 166.125,164.795ZM179.271,158.635C178.189,158.635 177.351,159.043 176.757,159.86C176.163,160.67 175.866,161.802 175.866,163.255C175.866,166.28 177.001,167.792 179.271,167.792C180.223,167.792 181.377,167.554 182.731,167.078L182.731,169.49C181.618,169.954 180.375,170.186 179.002,170.186C177.029,170.186 175.52,169.589 174.475,168.395C173.429,167.195 172.907,165.476 172.907,163.237C172.907,161.827 173.163,160.593 173.677,159.535C174.19,158.471 174.926,157.658 175.885,157.095C176.85,156.526 177.978,156.242 179.271,156.242C180.588,156.242 181.912,156.56 183.242,157.197L182.314,159.535C181.807,159.294 181.297,159.084 180.783,158.904C180.27,158.725 179.766,158.635 179.271,158.635ZM197.937,163.2C197.937,165.445 197.38,167.17 196.267,168.376C195.154,169.583 193.558,170.186 191.48,170.186C189.402,170.186 187.806,169.583 186.693,168.376C185.58,167.17 185.023,165.439 185.023,163.181C185.023,160.924 185.58,159.201 186.693,158.014C187.812,156.82 189.414,156.223 191.499,156.223C193.583,156.223 195.175,156.823 196.276,158.023C197.383,159.223 197.937,160.948 197.937,163.2ZM188.038,163.2C188.038,164.715 188.326,165.856 188.901,166.623C189.476,167.39 190.336,167.773 191.48,167.773C193.775,167.773 194.922,166.249 194.922,163.2C194.922,160.144 193.781,158.617 191.499,158.617C190.354,158.617 189.492,159.003 188.91,159.776C188.329,160.543 188.038,161.684 188.038,163.2ZM208.485,156.437L211.389,156.437L206.778,170L203.643,170L199.041,156.437L201.945,156.437L204.496,164.508C204.638,164.984 204.784,165.541 204.932,166.178C205.087,166.809 205.183,167.248 205.22,167.495C205.288,166.926 205.52,165.93 205.916,164.508L208.485,156.437ZM213.105,170L213.105,156.437L215.981,156.437L215.981,170L213.105,170ZM230.649,163.088C230.649,165.321 230.012,167.031 228.738,168.219C227.47,169.406 225.636,170 223.236,170L219.396,170L219.396,156.437L223.654,156.437C225.868,156.437 227.587,157.021 228.812,158.19C230.037,159.359 230.649,160.992 230.649,163.088ZM227.662,163.163C227.662,160.25 226.375,158.793 223.802,158.793L222.271,158.793L222.271,167.625L223.505,167.625C226.276,167.625 227.662,166.138 227.662,163.163ZM232.319,166.066L232.319,163.747L237.301,163.747L237.301,166.066L232.319,166.066ZM245.725,170L242.858,170L242.858,162.151L242.886,160.862L242.932,159.452C242.456,159.928 242.125,160.24 241.939,160.389L240.381,161.641L238.999,159.916L243.368,156.437L245.725,156.437L245.725,170ZM258.917,162.226C258.917,164.897 258.354,166.892 257.229,168.209C256.103,169.527 254.399,170.186 252.117,170.186C251.313,170.186 250.703,170.142 250.289,170.056L250.289,167.755C250.809,167.885 251.353,167.95 251.922,167.95C252.881,167.95 253.669,167.811 254.288,167.532C254.906,167.248 255.379,166.806 255.707,166.206C256.035,165.599 256.223,164.768 256.273,163.71L256.162,163.71C255.803,164.291 255.389,164.7 254.918,164.935C254.448,165.17 253.861,165.287 253.156,165.287C251.974,165.287 251.044,164.91 250.363,164.155C249.683,163.395 249.343,162.34 249.343,160.992C249.343,159.538 249.754,158.391 250.577,157.55C251.405,156.702 252.531,156.279 253.954,156.279C254.956,156.279 255.831,156.514 256.579,156.984C257.334,157.454 257.912,158.137 258.314,159.034C258.716,159.925 258.917,160.989 258.917,162.226ZM254.009,158.58C253.416,158.58 252.952,158.784 252.618,159.192C252.284,159.6 252.117,160.188 252.117,160.955C252.117,161.61 252.268,162.13 252.571,162.513C252.874,162.897 253.335,163.088 253.954,163.088C254.535,163.088 255.033,162.9 255.447,162.522C255.862,162.139 256.069,161.7 256.069,161.205C256.069,160.469 255.874,159.847 255.484,159.34C255.101,158.833 254.609,158.58 254.009,158.58ZM265.263,164.795C265.263,166.422 265.021,167.937 264.539,169.341C264.063,170.745 263.373,171.967 262.47,173.006L260.169,173.006C261.004,171.868 261.651,170.594 262.108,169.184C262.566,167.767 262.795,166.298 262.795,164.777C262.795,163.268 262.572,161.799 262.127,160.37C261.682,158.941 261.023,157.63 260.151,156.437L262.47,156.437C263.379,157.519 264.072,158.778 264.548,160.212C265.025,161.641 265.263,163.169 265.263,164.795ZM279.791,170L279.411,168.673L279.262,168.673C278.959,169.156 278.529,169.53 277.973,169.796C277.416,170.056 276.782,170.186 276.071,170.186C274.852,170.186 273.934,169.861 273.315,169.211C272.697,168.556 272.388,167.616 272.388,166.391L272.388,159.628L275.217,159.628L275.217,165.686C275.217,166.434 275.35,166.997 275.616,167.375C275.882,167.746 276.306,167.931 276.887,167.931C277.679,167.931 278.251,167.668 278.604,167.143C278.956,166.611 279.132,165.732 279.132,164.508L279.132,159.628L281.962,159.628L281.962,170L279.791,170ZM290.627,170.186C289.409,170.186 288.453,169.743 287.76,168.859L287.612,168.859C287.711,169.725 287.76,170.226 287.76,170.362L287.76,174.564L284.931,174.564L284.931,159.628L287.231,159.628L287.63,160.973L287.76,160.973C288.422,159.946 289.402,159.433 290.701,159.433C291.926,159.433 292.884,159.906 293.577,160.853C294.27,161.799 294.616,163.113 294.616,164.795C294.616,165.903 294.452,166.864 294.125,167.681C293.803,168.497 293.342,169.119 292.742,169.545C292.142,169.972 291.437,170.186 290.627,170.186ZM289.792,161.697C289.093,161.697 288.583,161.913 288.261,162.346C287.94,162.773 287.773,163.481 287.76,164.471L287.76,164.777C287.76,165.89 287.924,166.688 288.252,167.17C288.586,167.653 289.112,167.894 289.829,167.894C291.097,167.894 291.731,166.849 291.731,164.758C291.731,163.738 291.573,162.974 291.258,162.467C290.949,161.953 290.46,161.697 289.792,161.697ZM300.238,170.186C299.02,170.186 298.061,169.712 297.362,168.766C296.67,167.82 296.323,166.509 296.323,164.833C296.323,163.132 296.676,161.808 297.381,160.862C298.092,159.909 299.069,159.433 300.312,159.433C301.618,159.433 302.613,159.94 303.3,160.955L303.393,160.955C303.25,160.181 303.179,159.492 303.179,158.886L303.179,155.564L306.018,155.564L306.018,170L303.847,170L303.3,168.655L303.179,168.655C302.536,169.675 301.556,170.186 300.238,170.186ZM301.231,167.931C301.955,167.931 302.483,167.721 302.817,167.3C303.158,166.88 303.343,166.165 303.374,165.157L303.374,164.851C303.374,163.738 303.201,162.94 302.854,162.458C302.514,161.975 301.958,161.734 301.185,161.734C300.554,161.734 300.062,162.003 299.709,162.541C299.363,163.073 299.19,163.849 299.19,164.87C299.19,165.89 299.366,166.657 299.719,167.17C300.071,167.678 300.575,167.931 301.231,167.931ZM315.564,170L315.017,168.59L314.943,168.59C314.467,169.19 313.975,169.607 313.468,169.842C312.967,170.071 312.311,170.186 311.501,170.186C310.505,170.186 309.72,169.901 309.145,169.332C308.576,168.763 308.291,167.953 308.291,166.901C308.291,165.8 308.674,164.99 309.441,164.471C310.215,163.945 311.377,163.654 312.93,163.599L314.729,163.543L314.729,163.088C314.729,162.037 314.191,161.511 313.115,161.511C312.286,161.511 311.312,161.762 310.193,162.263L309.256,160.352C310.45,159.727 311.773,159.415 313.227,159.415C314.618,159.415 315.685,159.718 316.427,160.324C317.169,160.93 317.541,161.851 317.541,163.088L317.541,170L315.564,170ZM314.729,165.194L313.635,165.231C312.812,165.256 312.2,165.405 311.798,165.677C311.396,165.949 311.195,166.363 311.195,166.92C311.195,167.718 311.653,168.117 312.568,168.117C313.223,168.117 313.746,167.928 314.136,167.551C314.532,167.174 314.729,166.673 314.729,166.048L314.729,165.194ZM324.833,167.931C325.327,167.931 325.921,167.823 326.614,167.606L326.614,169.712C325.909,170.028 325.043,170.186 324.016,170.186C322.884,170.186 322.059,169.901 321.539,169.332C321.026,168.757 320.769,167.897 320.769,166.753L320.769,161.752L319.415,161.752L319.415,160.556L320.973,159.609L321.79,157.42L323.599,157.42L323.599,159.628L326.502,159.628L326.502,161.752L323.599,161.752L323.599,166.753C323.599,167.155 323.71,167.452 323.933,167.644C324.161,167.835 324.461,167.931 324.833,167.931ZM333.015,161.446C332.415,161.446 331.945,161.638 331.605,162.021C331.265,162.399 331.07,162.937 331.021,163.636L334.991,163.636C334.979,162.937 334.796,162.399 334.444,162.021C334.091,161.638 333.615,161.446 333.015,161.446ZM333.414,170.186C331.744,170.186 330.439,169.725 329.499,168.803C328.559,167.882 328.089,166.577 328.089,164.888C328.089,163.15 328.522,161.808 329.388,160.862C330.26,159.909 331.463,159.433 332.997,159.433C334.462,159.433 335.604,159.851 336.42,160.686C337.236,161.521 337.645,162.674 337.645,164.146L337.645,165.519L330.956,165.519C330.986,166.323 331.225,166.951 331.67,167.402C332.115,167.854 332.74,168.08 333.544,168.08C334.169,168.08 334.759,168.015 335.316,167.885C335.873,167.755 336.454,167.548 337.06,167.263L337.06,169.453C336.565,169.7 336.036,169.882 335.474,170C334.911,170.124 334.224,170.186 333.414,170.186Z" style="fill-rule:nonzero;"/>
    </g>
    <g transform="matrix(1,0,0,1,-30,-131)">
        <path d="M857.563,170.228C856.689,170.228 855.879,170.063 855.131,169.734C854.384,169.405 853.738,168.955 853.193,168.385L854.143,167.283C854.587,167.752 855.106,168.132 855.701,168.423C856.309,168.702 856.936,168.841 857.582,168.841C858.406,168.841 859.045,168.657 859.501,168.29C859.957,167.91 860.185,167.416 860.185,166.808C860.185,166.491 860.128,166.225 860.014,166.01C859.913,165.782 859.767,165.592 859.577,165.44C859.4,165.275 859.185,165.13 858.931,165.003C858.678,164.876 858.406,164.743 858.114,164.604L856.328,163.825C856.037,163.698 855.739,163.546 855.435,163.369C855.131,163.192 854.859,162.976 854.618,162.723C854.378,162.47 854.181,162.172 854.029,161.83C853.877,161.475 853.801,161.07 853.801,160.614C853.801,160.145 853.896,159.708 854.086,159.303C854.289,158.898 854.561,158.549 854.903,158.258C855.258,157.954 855.67,157.72 856.138,157.555C856.62,157.39 857.145,157.308 857.715,157.308C858.463,157.308 859.153,157.454 859.786,157.745C860.42,158.024 860.958,158.391 861.401,158.847L860.546,159.873C860.166,159.506 859.742,159.221 859.273,159.018C858.817,158.803 858.298,158.695 857.715,158.695C857.019,158.695 856.455,158.86 856.024,159.189C855.606,159.506 855.397,159.949 855.397,160.519C855.397,160.823 855.454,161.083 855.568,161.298C855.695,161.501 855.86,161.684 856.062,161.849C856.265,162.001 856.487,162.14 856.727,162.267C856.968,162.381 857.215,162.489 857.468,162.59L859.235,163.35C859.59,163.502 859.926,163.679 860.242,163.882C860.559,164.072 860.831,164.3 861.059,164.566C861.287,164.819 861.465,165.123 861.591,165.478C861.731,165.82 861.8,166.219 861.8,166.675C861.8,167.169 861.699,167.631 861.496,168.062C861.306,168.493 861.028,168.873 860.66,169.202C860.293,169.519 859.85,169.772 859.33,169.962C858.811,170.139 858.222,170.228 857.563,170.228ZM864.103,170L864.103,156.472L865.661,156.472L865.661,160.158L865.604,162.058C866.047,161.64 866.51,161.285 866.991,160.994C867.472,160.69 868.036,160.538 868.682,160.538C869.657,160.538 870.367,160.842 870.81,161.45C871.266,162.058 871.494,162.957 871.494,164.148L871.494,170L869.936,170L869.936,164.357C869.936,163.483 869.797,162.856 869.518,162.476C869.239,162.083 868.796,161.887 868.188,161.887C867.707,161.887 867.282,162.007 866.915,162.248C866.548,162.489 866.13,162.843 865.661,163.312L865.661,170L864.103,170ZM878.029,170.228C877.459,170.228 876.914,170.12 876.395,169.905C875.888,169.69 875.438,169.379 875.046,168.974C874.653,168.556 874.336,168.049 874.096,167.454C873.868,166.846 873.754,166.162 873.754,165.402C873.754,164.629 873.868,163.945 874.096,163.35C874.336,162.742 874.653,162.229 875.046,161.811C875.438,161.393 875.888,161.076 876.395,160.861C876.914,160.646 877.459,160.538 878.029,160.538C878.599,160.538 879.137,160.646 879.644,160.861C880.163,161.076 880.619,161.393 881.012,161.811C881.404,162.229 881.715,162.742 881.943,163.35C882.183,163.945 882.304,164.629 882.304,165.402C882.304,166.162 882.183,166.846 881.943,167.454C881.715,168.049 881.404,168.556 881.012,168.974C880.619,169.379 880.163,169.69 879.644,169.905C879.137,170.12 878.599,170.228 878.029,170.228ZM878.029,168.936C878.421,168.936 878.782,168.854 879.112,168.689C879.441,168.512 879.72,168.271 879.948,167.967C880.188,167.65 880.372,167.277 880.499,166.846C880.625,166.415 880.689,165.934 880.689,165.402C880.689,164.87 880.625,164.389 880.499,163.958C880.372,163.515 880.188,163.135 879.948,162.818C879.72,162.501 879.441,162.261 879.112,162.096C878.782,161.919 878.421,161.83 878.029,161.83C877.636,161.83 877.275,161.919 876.946,162.096C876.616,162.261 876.331,162.501 876.091,162.818C875.863,163.135 875.685,163.515 875.559,163.958C875.432,164.389 875.369,164.87 875.369,165.402C875.369,165.934 875.432,166.415 875.559,166.846C875.685,167.277 875.863,167.65 876.091,167.967C876.331,168.271 876.616,168.512 876.946,168.689C877.275,168.854 877.636,168.936 878.029,168.936ZM886.124,170L883.559,160.766L885.155,160.766L886.523,166.105C886.625,166.548 886.72,166.979 886.808,167.397C886.897,167.815 886.986,168.239 887.074,168.67L887.15,168.67C887.252,168.239 887.353,167.815 887.454,167.397C887.556,166.966 887.663,166.536 887.777,166.105L889.202,160.766L890.722,160.766L892.166,166.105C892.28,166.548 892.388,166.979 892.489,167.397C892.603,167.815 892.711,168.239 892.812,168.67L892.888,168.67C892.99,168.239 893.085,167.815 893.173,167.397C893.262,166.979 893.357,166.548 893.458,166.105L894.807,160.766L896.289,160.766L893.819,170L891.919,170L890.589,165.041C890.475,164.598 890.368,164.161 890.266,163.73C890.178,163.299 890.076,162.85 889.962,162.381L889.886,162.381C889.785,162.85 889.684,163.306 889.582,163.749C889.481,164.18 889.367,164.617 889.24,165.06L887.948,170L886.124,170ZM902.103,170L902.103,160.766L903.395,160.766L903.528,162.096L903.585,162.096C903.99,161.653 904.427,161.285 904.896,160.994C905.377,160.69 905.897,160.538 906.454,160.538C907.163,160.538 907.714,160.696 908.107,161.013C908.512,161.317 908.81,161.748 909,162.305C909.481,161.773 909.963,161.349 910.444,161.032C910.938,160.703 911.47,160.538 912.04,160.538C912.99,160.538 913.693,160.842 914.149,161.45C914.618,162.058 914.852,162.957 914.852,164.148L914.852,170L913.294,170L913.294,164.357C913.294,163.483 913.155,162.856 912.876,162.476C912.597,162.083 912.167,161.887 911.584,161.887C910.887,161.887 910.115,162.362 909.266,163.312L909.266,170L907.708,170L907.708,164.357C907.708,163.483 907.569,162.856 907.29,162.476C907.011,162.083 906.574,161.887 905.979,161.887C905.282,161.887 904.51,162.362 903.661,163.312L903.661,170L902.103,170ZM921.599,170.228C920.978,170.228 920.395,170.12 919.851,169.905C919.319,169.677 918.85,169.36 918.445,168.955C918.052,168.537 917.742,168.03 917.514,167.435C917.286,166.84 917.172,166.162 917.172,165.402C917.172,164.642 917.286,163.964 917.514,163.369C917.754,162.761 918.065,162.248 918.445,161.83C918.837,161.412 919.281,161.095 919.775,160.88C920.269,160.652 920.782,160.538 921.314,160.538C921.896,160.538 922.416,160.639 922.872,160.842C923.34,161.045 923.727,161.336 924.031,161.716C924.347,162.096 924.588,162.552 924.753,163.084C924.917,163.616 925,164.211 925,164.87C925,165.035 924.993,165.199 924.981,165.364C924.981,165.516 924.968,165.649 924.943,165.763L918.711,165.763C918.774,166.751 919.078,167.536 919.623,168.119C920.18,168.689 920.902,168.974 921.789,168.974C922.232,168.974 922.637,168.911 923.005,168.784C923.385,168.645 923.746,168.467 924.088,168.252L924.639,169.278C924.233,169.531 923.784,169.753 923.29,169.943C922.796,170.133 922.232,170.228 921.599,170.228ZM918.692,164.642L923.632,164.642C923.632,163.705 923.429,162.995 923.024,162.514C922.631,162.02 922.074,161.773 921.352,161.773C921.022,161.773 920.706,161.836 920.402,161.963C920.11,162.09 919.844,162.28 919.604,162.533C919.363,162.774 919.16,163.071 918.996,163.426C918.844,163.781 918.742,164.186 918.692,164.642ZM929.695,170.228C929.036,170.228 928.409,170.108 927.814,169.867C927.218,169.626 926.699,169.322 926.256,168.955L927.035,167.91C927.44,168.239 927.852,168.505 928.27,168.708C928.7,168.911 929.194,169.012 929.752,169.012C930.36,169.012 930.816,168.873 931.12,168.594C931.424,168.315 931.576,167.973 931.576,167.568C931.576,167.327 931.512,167.118 931.386,166.941C931.259,166.764 931.094,166.612 930.892,166.485C930.702,166.346 930.48,166.225 930.227,166.124C929.973,166.023 929.72,165.921 929.467,165.82C929.137,165.706 928.808,165.579 928.479,165.44C928.149,165.288 927.852,165.111 927.586,164.908C927.332,164.693 927.123,164.446 926.959,164.167C926.794,163.888 926.712,163.553 926.712,163.16C926.712,162.793 926.781,162.451 926.921,162.134C927.073,161.805 927.282,161.526 927.548,161.298C927.826,161.057 928.162,160.874 928.555,160.747C928.947,160.608 929.391,160.538 929.885,160.538C930.467,160.538 930.999,160.639 931.481,160.842C931.975,161.045 932.399,161.292 932.754,161.583L932.013,162.571C931.696,162.33 931.367,162.134 931.025,161.982C930.683,161.83 930.309,161.754 929.904,161.754C929.321,161.754 928.89,161.887 928.612,162.153C928.346,162.419 928.213,162.729 928.213,163.084C928.213,163.299 928.27,163.489 928.384,163.654C928.498,163.806 928.65,163.945 928.84,164.072C929.03,164.186 929.245,164.294 929.486,164.395C929.739,164.484 929.999,164.579 930.265,164.68C930.594,164.807 930.923,164.94 931.253,165.079C931.595,165.218 931.899,165.396 932.165,165.611C932.431,165.814 932.646,166.067 932.811,166.371C932.988,166.675 933.077,167.042 933.077,167.473C933.077,167.853 933.001,168.208 932.849,168.537C932.709,168.866 932.494,169.158 932.203,169.411C931.924,169.664 931.569,169.861 931.139,170C930.721,170.152 930.239,170.228 929.695,170.228ZM937.655,170.228C936.996,170.228 936.369,170.108 935.774,169.867C935.178,169.626 934.659,169.322 934.216,168.955L934.995,167.91C935.4,168.239 935.812,168.505 936.23,168.708C936.66,168.911 937.154,169.012 937.712,169.012C938.32,169.012 938.776,168.873 939.08,168.594C939.384,168.315 939.536,167.973 939.536,167.568C939.536,167.327 939.472,167.118 939.346,166.941C939.219,166.764 939.054,166.612 938.852,166.485C938.662,166.346 938.44,166.225 938.187,166.124C937.933,166.023 937.68,165.921 937.427,165.82C937.097,165.706 936.768,165.579 936.439,165.44C936.109,165.288 935.812,165.111 935.546,164.908C935.292,164.693 935.083,164.446 934.919,164.167C934.754,163.888 934.672,163.553 934.672,163.16C934.672,162.793 934.741,162.451 934.881,162.134C935.033,161.805 935.242,161.526 935.508,161.298C935.786,161.057 936.122,160.874 936.515,160.747C936.907,160.608 937.351,160.538 937.845,160.538C938.427,160.538 938.959,160.639 939.441,160.842C939.935,161.045 940.359,161.292 940.714,161.583L939.973,162.571C939.656,162.33 939.327,162.134 938.985,161.982C938.643,161.83 938.269,161.754 937.864,161.754C937.281,161.754 936.85,161.887 936.572,162.153C936.306,162.419 936.173,162.729 936.173,163.084C936.173,163.299 936.23,163.489 936.344,163.654C936.458,163.806 936.61,163.945 936.8,164.072C936.99,164.186 937.205,164.294 937.446,164.395C937.699,164.484 937.959,164.579 938.225,164.68C938.554,164.807 938.883,164.94 939.213,165.079C939.555,165.218 939.859,165.396 940.125,165.611C940.391,165.814 940.606,166.067 940.771,166.371C940.948,166.675 941.037,167.042 941.037,167.473C941.037,167.853 940.961,168.208 940.809,168.537C940.669,168.866 940.454,169.158 940.163,169.411C939.884,169.664 939.529,169.861 939.099,170C938.681,170.152 938.199,170.228 937.655,170.228ZM945.329,170.228C944.557,170.228 943.911,170 943.391,169.544C942.885,169.088 942.631,168.442 942.631,167.606C942.631,166.593 943.081,165.82 943.98,165.288C944.88,164.743 946.317,164.363 948.293,164.148C948.293,163.857 948.262,163.572 948.198,163.293C948.148,163.014 948.053,162.767 947.913,162.552C947.774,162.337 947.578,162.166 947.324,162.039C947.084,161.9 946.773,161.83 946.393,161.83C945.861,161.83 945.361,161.931 944.892,162.134C944.424,162.337 944.006,162.565 943.638,162.818L943.03,161.735C943.461,161.456 943.987,161.19 944.607,160.937C945.228,160.671 945.912,160.538 946.659,160.538C947.787,160.538 948.604,160.886 949.11,161.583C949.617,162.267 949.87,163.185 949.87,164.338L949.87,170L948.578,170L948.445,168.898L948.388,168.898C947.945,169.265 947.47,169.582 946.963,169.848C946.457,170.101 945.912,170.228 945.329,170.228ZM945.785,168.974C946.229,168.974 946.647,168.873 947.039,168.67C947.432,168.455 947.85,168.144 948.293,167.739L948.293,165.174C947.521,165.275 946.868,165.396 946.336,165.535C945.817,165.674 945.393,165.839 945.063,166.029C944.747,166.219 944.512,166.441 944.36,166.694C944.221,166.935 944.151,167.201 944.151,167.492C944.151,168.024 944.31,168.404 944.626,168.632C944.943,168.86 945.329,168.974 945.785,168.974ZM955.892,174.256C955.322,174.256 954.802,174.199 954.334,174.085C953.865,173.984 953.46,173.825 953.118,173.61C952.788,173.395 952.529,173.135 952.339,172.831C952.161,172.527 952.073,172.172 952.073,171.767C952.073,171.374 952.193,171.001 952.434,170.646C952.674,170.291 953.004,169.968 953.422,169.677L953.422,169.601C953.194,169.462 952.997,169.272 952.833,169.031C952.681,168.778 952.605,168.467 952.605,168.1C952.605,167.707 952.712,167.365 952.928,167.074C953.143,166.783 953.371,166.555 953.612,166.39L953.612,166.314C953.308,166.061 953.029,165.725 952.776,165.307C952.535,164.876 952.415,164.382 952.415,163.825C952.415,163.318 952.503,162.862 952.681,162.457C952.871,162.052 953.124,161.71 953.441,161.431C953.757,161.14 954.125,160.918 954.543,160.766C954.973,160.614 955.423,160.538 955.892,160.538C956.145,160.538 956.379,160.563 956.595,160.614C956.823,160.652 957.025,160.703 957.203,160.766L960.414,160.766L960.414,161.963L958.514,161.963C958.729,162.178 958.906,162.451 959.046,162.78C959.198,163.109 959.274,163.47 959.274,163.863C959.274,164.357 959.185,164.807 959.008,165.212C958.83,165.605 958.59,165.94 958.286,166.219C957.982,166.485 957.621,166.694 957.203,166.846C956.797,166.998 956.36,167.074 955.892,167.074C955.664,167.074 955.429,167.049 955.189,166.998C954.948,166.935 954.72,166.852 954.505,166.751C954.34,166.89 954.201,167.049 954.087,167.226C953.973,167.391 953.916,167.6 953.916,167.853C953.916,168.144 954.03,168.385 954.258,168.575C954.486,168.765 954.916,168.86 955.55,168.86L957.336,168.86C958.412,168.86 959.217,169.037 959.749,169.392C960.293,169.734 960.566,170.291 960.566,171.064C960.566,171.495 960.458,171.9 960.243,172.28C960.027,172.673 959.717,173.015 959.312,173.306C958.906,173.597 958.412,173.825 957.83,173.99C957.26,174.167 956.614,174.256 955.892,174.256ZM955.892,166.029C956.158,166.029 956.405,165.978 956.633,165.877C956.873,165.776 957.082,165.63 957.26,165.44C957.45,165.25 957.595,165.022 957.697,164.756C957.798,164.477 957.849,164.167 957.849,163.825C957.849,163.141 957.659,162.615 957.279,162.248C956.899,161.868 956.436,161.678 955.892,161.678C955.347,161.678 954.885,161.868 954.505,162.248C954.125,162.615 953.935,163.141 953.935,163.825C953.935,164.167 953.985,164.477 954.087,164.756C954.188,165.022 954.327,165.25 954.505,165.44C954.695,165.63 954.904,165.776 955.132,165.877C955.372,165.978 955.626,166.029 955.892,166.029ZM956.12,173.173C956.563,173.173 956.962,173.116 957.317,173.002C957.684,172.901 957.994,172.761 958.248,172.584C958.501,172.419 958.697,172.223 958.837,171.995C958.976,171.767 959.046,171.533 959.046,171.292C959.046,170.861 958.887,170.564 958.571,170.399C958.254,170.234 957.792,170.152 957.184,170.152L955.588,170.152C955.41,170.152 955.214,170.139 954.999,170.114C954.796,170.101 954.593,170.063 954.391,170C954.061,170.241 953.821,170.494 953.669,170.76C953.517,171.026 953.441,171.292 953.441,171.558C953.441,172.052 953.675,172.445 954.144,172.736C954.625,173.027 955.284,173.173 956.12,173.173ZM965.833,170.228C965.212,170.228 964.63,170.12 964.085,169.905C963.553,169.677 963.084,169.36 962.679,168.955C962.286,168.537 961.976,168.03 961.748,167.435C961.52,166.84 961.406,166.162 961.406,165.402C961.406,164.642 961.52,163.964 961.748,163.369C961.989,162.761 962.299,162.248 962.679,161.83C963.072,161.412 963.515,161.095 964.009,160.88C964.503,160.652 965.016,160.538 965.548,160.538C966.131,160.538 966.65,160.639 967.106,160.842C967.575,161.045 967.961,161.336 968.265,161.716C968.582,162.096 968.822,162.552 968.987,163.084C969.152,163.616 969.234,164.211 969.234,164.87C969.234,165.035 969.228,165.199 969.215,165.364C969.215,165.516 969.202,165.649 969.177,165.763L962.945,165.763C963.008,166.751 963.312,167.536 963.857,168.119C964.414,168.689 965.136,168.974 966.023,168.974C966.466,168.974 966.872,168.911 967.239,168.784C967.619,168.645 967.98,168.467 968.322,168.252L968.873,169.278C968.468,169.531 968.018,169.753 967.524,169.943C967.03,170.133 966.466,170.228 965.833,170.228ZM962.926,164.642L967.866,164.642C967.866,163.705 967.663,162.995 967.258,162.514C966.865,162.02 966.308,161.773 965.586,161.773C965.257,161.773 964.94,161.836 964.636,161.963C964.345,162.09 964.079,162.28 963.838,162.533C963.597,162.774 963.395,163.071 963.23,163.426C963.078,163.781 962.977,164.186 962.926,164.642Z" style="fill-rule:nonzero;"/>
    </g>
    <g transform="matrix(1,0,0,1,-30,-131)">
        <rect x="852.395" y="171.9" width="117.561" height="0.95" style="fill-rule:nonzero;"/>
    </g>
</svg>
